HIERARCHY
ROOT Hips
{
  OFFSET 0 0 0
  CHANNELS 6 Xposition Yposition Zposition Zrotation Xrotation Yrotation
  JOINT Spine
  {
    OFFSET 0 10.0588 -0.35816
    CHANNELS 3 Zrotation Xrotation Yrotation
    JOINT Spine1
    {
      OFFSET 0 11.7428 0
      CHANNELS 3 Zrotation Xrotation Yrotation
      JOINT Spine2
      {
        OFFSET 0 13.4203 0
        CHANNELS 3 Zrotation Xrotation Yrotation
        JOINT Neck
        {
          OFFSET 0 15.0978 0
          CHANNELS 3 Zrotation Xrotation Yrotation
          JOINT Head
          {
            OFFSET 0 8.08557 2.68779
            CHANNELS 3 Zrotation Xrotation Yrotation
            End Site
            {
              OFFSET 0 21.4992 7.1467
            }
          }
        }
        JOINT LeftShoulder
        {
          OFFSET 5.94912 13.2477 -0.0644512
          CHANNELS 3 Zrotation Xrotation Yrotation
          JOINT LeftArm
          {
            OFFSET 0 12.4722 0
            CHANNELS 3 Zrotation Xrotation Yrotation
            JOINT LeftForeArm
            {
              OFFSET 0 23.8149 0
              CHANNELS 3 Zrotation Xrotation Yrotation
              JOINT LeftHand
              {
                OFFSET 0 24.5563 0
                CHANNELS 3 Zrotation Xrotation Yrotation
                End Site
                {
                  OFFSET -1.85578 17.3552 -0.291151
                }
              }
            }
          }
        }
        JOINT RightShoulder
        {
          OFFSET -5.94912 13.2478 -0.0672938
          CHANNELS 3 Zrotation Xrotation Yrotation
          JOINT RightArm
          {
            OFFSET 0 12.4722 0
            CHANNELS 3 Zrotation Xrotation Yrotation
            JOINT RightForeArm
            {
              OFFSET 0 23.8199 0
              CHANNELS 3 Zrotation Xrotation Yrotation
              JOINT RightHand
              {
                OFFSET 0 24.5599 0
                CHANNELS 3 Zrotation Xrotation Yrotation
                End Site
                {
                  OFFSET 1.86614 17.4983 -0.349753
                }
              }
            }
          }
        }
      }
    }
  }
  JOINT LeftUpLeg
  {
    OFFSET 9.3921 -5.57221 -0.0932094
    CHANNELS 3 Zrotation Xrotation Yrotation
    JOINT LeftLeg
    {
      OFFSET 0 42.3183 0
      CHANNELS 3 Zrotation Xrotation Yrotation
      JOINT LeftFoot
      {
        OFFSET 0 39.0997 0
        CHANNELS 3 Zrotation Xrotation Yrotation
        JOINT LeftToe
        {
          OFFSET 0 14.7062 0
          CHANNELS 3 Zrotation Xrotation Yrotation
          End Site
          {
            OFFSET 0 5.95384 0
          }
        }
      }
    }
  }
  JOINT RightUpLeg
  {
    OFFSET -9.3921 -5.57221 -0.0152289
    CHANNELS 3 Zrotation Xrotation Yrotation
    JOINT RightLeg
    {
      OFFSET 0 42.326 0
      CHANNELS 3 Zrotation Xrotation Yrotation
      JOINT RightFoot
      {
        OFFSET 0 39.0933 0
        CHANNELS 3 Zrotation Xrotation Yrotation
        JOINT RightToe
        {
          OFFSET 0 14.5999 0
          CHANNELS 3 Zrotation Xrotation Yrotation
          End Site
          {
            OFFSET 0 6.0364 0
          }
        }
      }
    }
  }
}
MOTION
Frames:	16
Frame Time:	0.0416667
0.0605054 95.3688 -0.218461 2.17729 -5.45 -15.7323 -1.05421 4.99316 -0.865677 -0.156301 2.12383 -0.547017 -0.15078 2.12797 -0.536607 1.21861 2.03494 2.42197 -4.65949 -4.83734 13.9065 -116.214 0.819267 93.6013 5.26799 48.7433 5.66852 21.7115 0.369625 -0.528207 -2.9537 4.90655 17.5271 119.734 7.84534 -96.6998 -2.82855 53.2988 25.0006 -15.6453 0.260483 0.514692 3.72121 7.22246 -31.2347 -176.761 5.64434 -8.18414 0.186505 -18.2625 -1.219 10.9594 65.397 -15.0104 0.154186 33.2966 -0.280864 178.085 -0.353285 10.7417 0.981686 -24.035 10.0855 -42.3041 74.9943 43.2957 0.0329817 33.5225 -0.0597201 
0.00774555 95.3062 -0.0473029 2.22522 -5.50072 -16.6837 -1.17983 5.13516 -0.984485 -0.200887 2.0736 -0.618411 -0.194165 2.07819 -0.608369 1.23264 2.1301 2.46437 -4.62279 -4.79028 14.2379 -116.026 0.926434 93.6286 5.50779 48.9727 5.66465 20.9289 0.357007 -0.523282 -2.494 3.96819 17.0243 119.735 7.82743 -96.6954 -2.52476 53.344 24.5062 -15.4732 0.257559 0.513902 2.91781 7.16326 -31.1924 -176.815 5.45544 -8.36971 0.146341 -18.4152 -1.8572 10.8726 65.393 -15.0603 0.154186 33.2966 -0.280864 177.716 -0.190986 10.9449 1.0478 -24.568 10.1157 -40.2275 75.9673 40.9398 0.0329817 33.5225 -0.0597201 
-0.0351531 95.2042 0.15561 2.17318 -5.54507 -17.835 -1.23993 5.28978 -1.12056 -0.242879 2.0617 -0.70252 -0.234769 2.06673 -0.692944 1.21522 2.17836 2.52093 -4.56408 -4.7642 14.6012 -115.765 1.03557 93.6497 5.26724 49.1224 6.26795 21.4786 0.365985 -0.526782 -3.32101 2.86837 16.1923 119.767 7.79996 -96.6878 -1.22891 53.4098 23.035 -16.6981 0.278445 0.519621 2.54235 7.38041 -30.5491 -176.724 5.43609 -8.53623 0.0896139 -19.0619 -2.78772 10.8097 65.7414 -15.2264 0.154186 33.2966 -0.280864 177.384 0.0156449 11.0722 1.12636 -25.2526 10.1901 -37.5765 77.0714 38.0003 0.0329817 33.5225 -0.0597201 
-0.0552281 95.0891 0.40211 2.05686 -5.56319 -18.9714 -1.24655 5.45703 -1.32991 -0.288808 2.12206 -0.835692 -0.278746 2.12769 -0.82652 1.17122 2.14307 2.60438 -4.56883 -4.82889 15.0786 -115.392 1.20371 93.6816 5.86199 48.9724 6.60973 22.6668 0.385124 -0.534532 -5.04629 2.40182 15.0583 119.812 7.759 -96.6759 0.447762 53.0901 20.9103 -19.1461 0.317836 0.532337 2.54548 8.44162 -29.3715 -176.582 5.56905 -8.53859 0.0492395 -20.0797 -3.45521 10.811 66.5712 -15.4536 0.154186 33.2966 -0.280864 177.152 0.147556 11.0893 1.14528 -25.8786 9.69692 -36.7778 77.7825 37.0466 0.0329817 33.5225 -0.0597201 
-0.0295093 94.994 0.651971 1.92892 -5.49133 -19.9256 -1.22688 5.64273 -1.60511 -0.338037 2.21553 -1.01099 -0.325419 2.22192 -1.00218 1.13371 2.07718 2.70915 -4.69579 -5.03941 15.7104 -114.85 1.49043 93.7475 9.12602 48.1583 5.59272 22.5356 0.382969 -0.533628 -5.68046 2.76573 13.6383 119.783 7.72709 -96.6604 1.5157 51.8112 18.8754 -22.4225 0.369613 0.551943 2.58998 10.1508 -27.5641 -176.686 5.84576 -8.41608 0.114017 -21.1789 -2.39584 11.5401 67.6192 -15.9918 0.154186 33.2966 -0.280864 177.018 0.176913 11.0562 1.11082 -26.2485 8.76946 -37.7364 78.0816 37.9684 0.0329817 33.5225 -0.0597201 
0.0817695 94.901 0.876164 1.75018 -5.26973 -20.7855 -1.15901 5.84792 -1.87018 -0.386842 2.26154 -1.17502 -0.371471 2.26855 -1.16696 1.12226 2.08495 2.81363 -4.8699 -5.31027 16.4535 -114.162 1.86711 93.8343 14.9433 46.2874 3.44284 21.4253 0.365105 -0.526416 -4.38909 2.96541 11.9036 119.683 7.80475 -96.6814 1.37496 49.0289 17.603 -26.5209 0.432683 0.580629 2.41477 11.2222 -24.82 -177.166 7.0224 -8.41548 0.292672 -23.4768 0.856648 15.5071 69.2599 -17.9594 0.154186 33.2966 -0.280864 176.953 0.281304 11.0991 1.07373 -26.5152 7.81703 -38.6032 78.3007 38.8251 0.0329817 33.5225 -0.0597201 
0.300557 94.8104 1.1229 1.54224 -4.90322 -21.6724 -1.07102 6.0421 -2.07287 -0.452058 2.23748 -1.29471 -0.434143 2.24467 -1.2882 1.11781 2.20755 2.90418 -4.91987 -5.4612 17.3688 -113.49 2.24102 93.8855 21.4806 42.8601 1.49173 22.0516 0.375352 -0.530501 -2.86576 1.83563 9.87786 119.731 8.13575 -96.8096 -0.170954 44.2676 17.5115 -31.4287 0.505329 0.620759 2.07262 10.3944 -21.2852 -177.798 9.1527 -8.58307 0.513443 -26.426 4.86237 19.6195 69.9007 -19.683 0.154186 33.2966 -0.280864 176.857 0.50943 11.3117 1.02718 -26.7444 6.61633 -39.3872 78.4487 39.6059 0.0329817 33.5225 -0.0597201 
0.591909 94.7906 1.47764 1.42122 -4.43474 -22.5994 -1.07347 6.19355 -2.2199 -0.56915 2.18976 -1.37703 -0.549126 2.19677 -1.37304 1.1128 2.40598 2.98306 -4.77306 -5.38622 18.7067 -112.979 2.60958 93.8604 27.9189 37.4817 0.402916 25.0534 0.422948 -0.551285 -2.61605 -0.657106 7.29525 120.095 8.6998 -97.0333 -3.24402 37.3648 18.6267 -36.603 0.577924 0.669705 1.83999 7.73066 -17.865 -178.103 11.9554 -8.71547 0.545965 -28.679 7.25708 18.5493 68.6879 -18.6258 0.154186 33.2966 -0.280864 176.645 0.678606 11.6183 0.98329 -26.6012 5.13997 -39.6331 78.4128 39.8172 0.0329817 33.5225 -0.0597201 
0.893585 94.8693 1.98481 1.40469 -3.94684 -23.6451 -1.26612 6.34305 -2.31356 -0.750864 2.16208 -1.42456 -0.729302 2.16881 -1.42388 1.10187 2.64147 3.05852 -4.6001 -5.1456 20.6136 -112.541 3.11548 93.7899 34.7548 30.3199 -0.384748 28.2594 0.473959 -0.576862 -2.96082 -3.69845 3.83559 120.551 9.22939 -97.1963 -7.87286 28.7796 20.5048 -41.316 0.639744 0.719512 1.90468 4.29792 -15.3358 -178.147 15.0966 -8.72624 0.328707 -30.2192 6.7181 17.7181 68.1094 -18.101 0.154186 33.2966 -0.280864 176.334 0.63305 11.8397 0.970862 -25.9005 3.6001 -38.9909 78.1501 39.131 0.0329817 33.5225 -0.0597201 
1.16291 95.0119 2.67393 1.43934 -3.55297 -24.8884 -1.66978 6.54621 -2.33548 -0.972063 2.16243 -1.42659 -0.949634 2.16901 -1.4294 1.07646 2.92416 3.13109 -4.61112 -4.87326 22.9248 -111.956 3.90361 93.7418 41.4333 21.866 -1.36452 30.5285 0.501463 -0.592222 -2.99123 -6.7382 0.158955 120.683 9.57169 -97.1847 -13.7232 19.2444 22.7165 -45.0621 0.685668 0.76246 2.14128 0.742032 -13.8288 -177.924 18.1109 -8.71204 0.00856836 -30.6574 4.95197 17.0267 67.3077 -17.3887 0.154186 33.2966 -0.280864 175.91 0.291042 11.9441 1.00453 -24.7689 2.16608 -37.6087 77.7426 37.7858 0.0329817 33.5225 -0.0597201 
1.37171 95.1562 3.58889 1.47392 -3.22086 -26.2584 -2.2265 6.75447 -2.26387 -1.19706 2.1681 -1.37082 -1.17481 2.17467 -1.37686 1.01748 3.28982 3.18268 -4.78594 -4.60319 25.2364 -111.106 5.02459 93.7682 46.5855 12.5696 -2.60396 32.1354 0.530997 -0.609999 -2.88688 -9.65198 -2.51947 120.305 9.94265 -97.0839 -19.8919 9.23039 25.1524 -47.5652 0.719161 0.797733 2.26759 -2.95836 -13.364 -177.379 20.8964 -8.76952 -0.275156 -30.3493 4.22122 16.7627 66.3633 -16.6588 0.154186 33.2966 -0.280864 175.402 -0.351028 12.0541 1.08329 -23.3506 0.821992 -35.996 77.3 36.3086 0.0329817 33.5225 -0.0597201 
1.49656 95.2459 4.76474 1.45724 -2.75903 -27.6574 -2.85832 6.86182 -2.08437 -1.42143 2.1241 -1.24667 -1.40075 2.13046 -1.25592 0.945673 3.75337 3.19238 -4.96157 -4.23897 27.2507 -110.032 6.43418 93.8931 50.0605 2.96895 -4.22918 32.7114 0.553302 -0.624263 -2.99279 -12.3967 -3.73367 119.536 10.4671 -96.9818 -25.3522 -1.00099 27.6187 -48.8266 0.735198 0.815818 2.18684 -6.65469 -14.1003 -176.281 23.6691 -9.06483 -0.514305 -29.7458 4.48063 16.1902 65.5739 -16.0742 0.154186 33.2966 -0.280864 174.88 -1.04047 12.2139 1.19812 -22.0275 -0.624122 -34.1997 77.0802 35.1472 0.0329817 33.5225 -0.0597201 
1.52327 95.2405 6.21358 1.39086 -2.05394 -28.9717 -3.51821 6.85923 -1.86481 -1.68166 1.99707 -1.09234 -1.66321 2.00292 -1.10572 0.903308 4.27684 3.18543 -5.06774 -3.76941 29.0839 -108.881 7.96311 94.0947 52.3403 -6.34839 -6.2451 32.1288 0.531566 -0.610377 -3.15302 -14.8871 -4.05932 118.503 10.703 -96.7187 -30.1482 -11.0264 29.7566 -48.8893 0.730134 0.810048 1.95204 -9.72237 -15.9166 -174.564 26.4476 -9.73976 -0.731413 -28.887 4.25944 15.0119 65.1048 -15.6962 0.154186 33.2966 -0.280864 174.514 -1.76705 12.3755 1.33342 -20.6496 -2.07331 -32.646 77.0147 34.3403 0.0329817 33.5225 -0.0597201 
1.46228 95.1185 7.94753 1.3424 -1.15431 -29.9766 -4.212 6.84576 -1.74269 -1.98428 1.83522 -0.994452 -1.96707 1.84081 -1.01284 0.867206 4.789 3.22573 -5.07624 -3.38082 30.8615 -107.797 9.3199 94.3081 53.6949 -14.9536 -8.59448 31.3359 0.519865 -0.603137 -3.03738 -17.0857 -4.214 116.993 10.3813 -96.1719 -34.6545 -20.1781 31.6913 -47.9058 0.719368 0.797956 1.46404 -11.7799 -18.334 -172.556 29.0855 -10.6953 -0.899648 -27.6664 2.9876 13.662 64.7116 -15.3707 0.154186 33.2966 -0.280864 174.328 -2.67223 12.5838 1.4599 -18.9988 -3.22865 -31.6348 76.9836 33.849 0.0329817 33.5225 -0.0597201 
1.3479 94.8674 9.96577 1.3216 -0.109205 -30.5677 -4.97368 6.92505 -1.76949 -2.25919 1.70531 -0.991224 -2.24154 1.71172 -1.01379 0.785639 5.2231 3.33819 -4.95372 -3.28296 32.3193 -106.796 10.2779 94.4605 54.1257 -22.2943 -11.4348 31.466 0.521644 -0.604223 -2.27979 -19.2215 -4.4897 114.519 10.2206 -95.6092 -37.6703 -27.8481 34.3282 -46.4745 0.702773 0.780059 0.552788 -13.1866 -20.785 -170.52 31.6439 -11.7818 -0.983272 -26.4372 0.979548 12.3154 64.258 -15.0108 0.154186 33.2966 -0.280864 174.14 -3.54536 12.8938 1.54258 -17.669 -4.12327 -30.5709 77.3396 33.9033 0.0329817 33.5225 -0.0597201 
1.19038 94.4767 12.2441 1.23783 1.17827 -30.8985 -5.78506 7.10226 -1.86514 -2.47165 1.59006 -1.03349 -2.45256 1.59809 -1.05928 0.720032 5.53854 3.46783 -4.70415 -3.48652 33.2541 -105.697 10.9085 94.525 53.949 -27.9474 -14.7369 32.0739 0.530654 -0.609815 -0.582629 -21.9878 -4.85151 111.085 10.9286 -95.3399 -37.6589 -34.0092 38.2765 -45.1249 0.686845 0.763695 -0.779463 -14.7871 -22.6789 -168.221 34.3623 -13.1465 -0.997528 -25.7639 -1.21815 11.042 63.7814 -14.6393 0.154186 33.2966 -0.280864 174.169 -4.4628 13.1116 1.56527 -16.2948 -4.64324 -29.3152 77.8756 34.0873 0.0329817 33.5225 -0.0597201 
